<svg id="Layer_1" height="512" viewBox="0 0 512 512" width="512" xmlns="http://www.w3.org/2000/svg" data-name="Layer 1"><path d="m282.66 197.59-26.1 26.09 30.17 30.42 25.13-25.14z" fill="#7f8a98"/><path d="m171.34 215.84-34.97 35.27.14.14 121.57 121.85.06.06 34.97-35.27z" fill="#6d7486"/><path d="m399.1 428.22 19.32 19.49-52.84 53.29-19.32-19.49 52.73-53.18z" fill="#fadf4a"/><path d="m297.34 325.59-52.84 53.3 101.76 102.62 52.73-53.18.11-.11z" fill="#72bcef"/><path d="m238.93 193.84-30.51 30.89 78.34 79.02.24.24 30.51-30.89z" fill="#72bcef"/><path d="m286.76 303.75-78.34-79.02-99.61 100.85 9.54 9.63 59.5 60 9.54 9.63 99.61-100.85z" fill="#e5f5fd"/><path d="m83.16 109.57-52.73 53.19-.11.11 101.75 102.62 52.84-53.29z" fill="#72bcef"/><path d="m177.85 395.21-22.67 22.74-59.46-59.97-.03-.03 22.66-22.74z" fill="#72bcef"/><path d="m95.72 357.98 59.46 59.97-19.76 19.83-59.5-60 19.77-19.83z" fill="#7f8a98"/><path d="m83.16 109.57-52.73 53.19-.11.11-19.32-19.49 52.84-53.29z" fill="#fadf4a"/><path d="m127.46 190.34 39.56 39.9-17.06 17.21-39.56-39.91z" fill="#ed6337"/><path d="m279.45 343.64 39.39 39.72-17.06 17.21-39.39-39.73z" fill="#ed6337"/><path d="m238.93 193.84-30.51 30.89 22 22 30.416-30.795z" fill="#50a6ea"/><path d="m208.42 224.73-99.61 100.85 9.54 9.63 12.46 12.37 99.515-100.754z" fill="#a6b7d0"/><path d="m169.168 304.885a6 6 0 0 1 -4.305-10.178l29.116-30.01a6 6 0 1 1 8.612 8.357l-29.116 30.009a5.984 5.984 0 0 1 -4.307 1.822z" fill="#e5f5fd"/><path d="m147.875 326.9a6 6 0 0 1 -4.328-10.154l9.675-10.082a6 6 0 0 1 8.658 8.309l-9.674 10.081a5.984 5.984 0 0 1 -4.331 1.846z" fill="#e5f5fd"/><g fill="#50dd5a"><path d="m500.469 118.854a6 6 0 0 1 -5.973-6.646 85.816 85.816 0 0 0 -94.7-94.7 6 6 0 0 1 -1.296-11.934 97.815 97.815 0 0 1 107.927 107.926 6 6 0 0 1 -5.958 5.354z"/><path d="m475.216 118.855a6.133 6.133 0 0 1 -.891-.066 6 6 0 0 1 -5.051-6.819 60.821 60.821 0 0 0 -69.244-69.244 6 6 0 0 1 -1.769-11.87 72.824 72.824 0 0 1 82.883 82.883 6 6 0 0 1 -5.928 5.116z"/><path d="m449.7 118.856a6.006 6.006 0 0 1 -5.834-7.425 35.8 35.8 0 0 0 -43.3-43.3 6 6 0 0 1 -2.847-11.657 47.8 47.8 0 0 1 57.8 57.8 6 6 0 0 1 -5.819 4.582z"/></g><path d="m350.175 168.843a6 6 0 0 1 -4.242-10.242l30.767-30.764a6 6 0 0 1 8.485 8.486l-30.763 30.763a5.982 5.982 0 0 1 -4.247 1.757z" fill="#fadf4a"/><circle cx="388" cy="125" fill="#d8ff33" r="16"/><path d="m293.95 105.98a81.18 81.18 0 0 0 2.98 111.12 79.656 79.656 0 0 0 110.18 3z" fill="#ed6337"/><path d="m304.66 219.59a81.392 81.392 0 0 1 11.2-91.51l-21.914-22.1a81.18 81.18 0 0 0 2.98 111.12 80.459 80.459 0 0 0 12.281 10.147 80.17 80.17 0 0 1 -4.547-7.657z" fill="#c24e38"/></svg>