<?xml version="1.0" encoding="iso-8859-1"?>
<!-- Generator: Adobe Illustrator 19.0.0, SVG Export Plug-In . SVG Version: 6.00 Build 0)  -->
<svg version="1.1" id="Capa_1" xmlns="http://www.w3.org/2000/svg" xmlns:xlink="http://www.w3.org/1999/xlink" x="0px" y="0px"
	 viewBox="0 0 472 472" style="enable-background:new 0 0 472 472;" xml:space="preserve">
<polygon style="fill:#CCCCCC;" points="160,276 192,244 192,116 272,116 272,244 304,276 304,420 160,420 "/>
<polygon style="fill:#999999;" points="304,276 272,244 272,116 232,116 232,420 304,420 "/>
<polygon style="fill:#E7B900;" points="176,420 144,420 128,444 192,444 "/>
<rect x="128" y="444" style="fill:#FFD422;" width="64" height="24"/>
<polygon style="fill:#E7B900;" points="320,420 288,420 272,444 336,444 "/>
<rect x="272" y="444" style="fill:#FFD422;" width="64" height="24"/>
<path style="fill:#5AAAE7;" d="M232,92c-32,0-40,24-40,24v32c0,0,8-24,40-24s40,24,40,24v-32C272,116,264,92,232,92z"/>
<path style="fill:#EBE5DD;" d="M3.926,351.485C1.395,354.396,0,358.125,0,361.983V372h117.138l13.042-40.717
	C133.6,317.6,145.895,308,160,308v-32V172L3.926,351.485z"/>
<path style="fill:#F40E34;" d="M266.733,25.466C260.155,12.31,246.709,4,232,4s-28.155,8.31-34.733,21.466L184,52h96L266.733,25.466
	z"/>
<path style="fill:#A6001E;" d="M280,52h-24l-13.28-26.56C238,16,229.76,9.04,220,5.92C223.84,4.64,227.84,4,232,4
	c14.72,0,28.16,8.32,34.72,21.44L280,52z"/>
<path style="fill:#5AAAE7;" d="M117.138,372H0v32c0,8.836,7.164,16,16,16h96v-31.96L117.138,372z"/>
<g>
	<path style="fill:#EBE5DD;" d="M130.179,331.283L117.138,372H120h-2.862L112,388.04V420h96v-31.96l-18.179-56.756
		C186.4,317.6,174.105,308,160,308S133.6,317.6,130.179,331.283z"/>
	<path style="fill:#EBE5DD;" d="M304,137.771c0-24.839-5.783-49.337-16.892-71.554L280,52h-96l-7.108,14.217
		C165.783,88.434,160,112.932,160,137.771V172v104l32-32v-96v-32c0,0,8-24,40-24s40,24,40,24v32v96l32,32V172V137.771z"/>
	<path style="fill:#EBE5DD;" d="M460.074,351.485L304,172v104v32c14.105,0,26.4,9.6,29.821,23.283L346.862,372H464v-10.017
		C464,358.125,462.605,354.396,460.074,351.485z"/>
	<path style="fill:#EBE5DD;" d="M346.862,372h-2.863H346.862l-13.042-40.717C330.4,317.6,318.105,308,304,308
		s-26.4,9.6-29.821,23.283L256,388.04V420h96v-31.96L346.862,372z"/>
</g>
<g>
	<path style="fill:#D4C8B8;" d="M352,388v32h-96v-24h72v-32l-5.12-16l-12.64-39.36c11.36,2.32,20.72,11.04,23.6,22.64L346.88,372
		L352,388z"/>
	<path style="fill:#D4C8B8;" d="M208,388v32h-96v-24h72v-32l-5.12-16l-12.64-39.36c11.36,2.32,20.72,11.04,23.6,22.64L202.88,372
		L208,388z"/>
</g>
<path style="fill:#5AAAE7;" d="M352,388.04V420h96c8.836,0,16-7.164,16-16v-32H346.862L352,388.04z"/>
<path style="fill:#F40E34;" d="M208,420v-31.96l14.784-96.133c0.7-4.549,4.614-7.907,9.216-7.907h0c4.602,0,8.516,3.358,9.216,7.907
	L256,388.04V420H208z"/>
<path style="fill:#A6001E;" d="M256,388.04l-14.784-96.133C240.517,287.358,236.603,284,232,284v136h24V388.04z"/>
<g>
	<rect x="56" y="324" style="fill:#F40E34;" width="16" height="24"/>
	<rect x="88" y="324" style="fill:#F40E34;" width="16" height="24"/>
	<rect x="360" y="324" style="fill:#F40E34;" width="16" height="24"/>
	<rect x="392" y="324" style="fill:#F40E34;" width="16" height="24"/>
</g>
<g>
	<rect x="360" y="92" style="fill:#5AAAE7;" width="16" height="16"/>
	<rect x="360" y="124" style="fill:#5AAAE7;" width="16" height="16"/>
	<rect x="376" y="108" style="fill:#5AAAE7;" width="16" height="16"/>
	<rect x="344" y="108" style="fill:#5AAAE7;" width="16" height="16"/>
	<rect x="16" y="4" style="fill:#5AAAE7;" width="16" height="16"/>
	<rect x="16" y="36" style="fill:#5AAAE7;" width="16" height="16"/>
	<rect x="32" y="20" style="fill:#5AAAE7;" width="16" height="16"/>
	<rect y="20" style="fill:#5AAAE7;" width="16" height="16"/>
</g>
<g>
	<path style="fill:#FFD422;" d="M72.023,212c-3.375,0-6.664-0.516-9.813-1.523l4.906-15.234c3.125,1.008,6.695,1.008,9.883-0.039
		l4.953,15.219C78.766,211.461,75.422,211.992,72.023,212z M46.211,198.945c-4.016-5.461-6.164-11.945-6.203-18.75l16-0.094
		c0.023,3.406,1.086,6.641,3.094,9.359L46.211,198.945z M97.914,198.781l-12.953-9.391C86.953,186.648,88,183.398,88,180l16-0.281
		V180C104,186.797,101.898,193.289,97.914,198.781z M58.992,170.688l-13.016-9.313c3.906-5.453,9.539-9.617,15.875-11.734
		l5.078,15.172C63.766,165.875,60.945,167.961,58.992,170.688z M84.859,170.477c-2.047-2.742-4.828-4.727-8.055-5.742l4.797-15.266
		c6.453,2.031,12.016,5.984,16.086,11.445L84.859,170.477z"/>
	<rect x="456" y="196" style="fill:#FFD422;" width="16" height="24"/>
	<rect x="456" y="12" style="fill:#FFD422;" width="16" height="24"/>
</g>
<g>
	<path style="fill:#1E81CE;" d="M0,404c0,8.836,7.164,16,16,16h96v-24H0V404z"/>
	<path style="fill:#1E81CE;" d="M352,396v24h96c8.836,0,16-7.164,16-16v-8H352z"/>
	<path style="fill:#1E81CE;" d="M232,92v24v8c32,0,40,24,40,24v-32C272,116,264,92,232,92z"/>
</g>
<g>
	<path style="fill:#FFFFFF;" d="M48,396H32v-40c0-1.977,0.734-3.883,2.055-5.352l72-80l11.891,10.703L48,359.07V396z"/>
	
		<rect x="124.719" y="243.996" transform="matrix(-0.7071 0.7071 -0.7071 -0.7071 410.4086 333.9958)" style="fill:#FFFFFF;" width="22.624" height="16"/>
	<rect x="136" y="396" style="fill:#FFFFFF;" width="16" height="24"/>
	<rect x="136" y="332" style="fill:#FFFFFF;" width="16" height="48"/>
	<rect x="280" y="396" style="fill:#FFFFFF;" width="16" height="24"/>
	<rect x="280" y="332" style="fill:#FFFFFF;" width="16" height="48"/>
	
		<rect x="211.055" y="28.003" transform="matrix(-0.4472 0.8944 -0.8944 -0.4472 350.5871 -144.6702)" style="fill:#FFFFFF;" width="17.888" height="16"/>
	<path style="fill:#FFFFFF;" d="M192,188h-16v-54.633c0-18.047,4.906-35.758,14.188-51.234l10.953-18.25l13.719,8.234l-10.953,18.25
		c-7.789,12.984-11.906,27.852-11.906,43V188z"/>
	<rect x="248" y="156" style="fill:#FFFFFF;" width="16" height="16"/>
	<rect x="248" y="188" style="fill:#FFFFFF;" width="16" height="56"/>
	<rect x="376" y="388" style="fill:#FFFFFF;" width="16" height="16"/>
	<rect x="408" y="388" style="fill:#FFFFFF;" width="56" height="16"/>
</g>
<g>
</g>
<g>
</g>
<g>
</g>
<g>
</g>
<g>
</g>
<g>
</g>
<g>
</g>
<g>
</g>
<g>
</g>
<g>
</g>
<g>
</g>
<g>
</g>
<g>
</g>
<g>
</g>
<g>
</g>
</svg>
